<svg width="145" height="145" viewBox="0 0 145 145" fill="none" xmlns="http://www.w3.org/2000/svg">
<rect width="145" height="145" rx="25" fill="#155E63"/>
<g filter="url(#filter0_d_1_3)">
<path d="M25.7315 71.2273V66.1136C29.5724 66.1136 32.2543 65.3295 33.777 63.7614C35.2997 62.1705 36.0611 59.5455 36.0611 55.8864V46.1023C36.0611 42.625 36.4474 39.7045 37.2202 37.3409C38.0156 34.9545 39.2202 33.0455 40.8338 31.6136C42.4474 30.1818 44.4929 29.1477 46.9702 28.5114C49.4474 27.875 52.3679 27.5568 55.7315 27.5568V35.6364C53.0952 35.6364 51.0384 36.0227 49.5611 36.7955C48.0838 37.5682 47.0497 38.7727 46.4588 40.4091C45.8906 42.0227 45.6065 44.0909 45.6065 46.6136V59.0227C45.6065 60.7727 45.3452 62.3977 44.8224 63.8977C44.2997 65.375 43.3338 66.6591 41.9247 67.75C40.5156 68.8409 38.5043 69.6932 35.8906 70.3068C33.277 70.9205 29.8906 71.2273 25.7315 71.2273ZM55.7315 114.523C52.3679 114.523 49.4474 114.205 46.9702 113.568C44.4929 112.932 42.4474 111.898 40.8338 110.466C39.2202 109.034 38.0156 107.125 37.2202 104.739C36.4474 102.375 36.0611 99.4545 36.0611 95.9773V86.1591C36.0611 82.5227 35.2997 79.9091 33.777 78.3182C32.2543 76.7273 29.5724 75.9318 25.7315 75.9318V70.8523C29.8906 70.8523 33.277 71.1591 35.8906 71.7727C38.5043 72.3636 40.5156 73.2159 41.9247 74.3295C43.3338 75.4205 44.2997 76.7159 44.8224 78.2159C45.3452 79.6932 45.6065 81.3068 45.6065 83.0568V95.4659C45.6065 97.9659 45.8906 100.023 46.4588 101.636C47.0497 103.273 48.0838 104.477 49.5611 105.25C51.0384 106.045 53.0952 106.443 55.7315 106.443V114.523ZM25.7315 75.9318V66.1136H35.1747V75.9318H25.7315ZM78.7855 90.4545L78.2741 94.1705C77.9332 96.8977 77.3537 99.7386 76.5355 102.693C75.7401 105.67 74.9105 108.432 74.0469 110.977C73.206 113.523 72.5128 115.545 71.9673 117.045H64.7401C65.0355 115.636 65.4446 113.727 65.9673 111.318C66.4901 108.932 67.0014 106.261 67.5014 103.307C68.0014 100.352 68.3764 97.3409 68.6264 94.2727L68.9673 90.4545H78.7855ZM73.4673 62.5341C71.6037 62.5341 70.0014 61.8636 68.6605 60.5227C67.3196 59.1818 66.6491 57.5795 66.6491 55.7159C66.6491 53.8523 67.3196 52.2614 68.6605 50.9432C70.0014 49.6023 71.6037 48.9318 73.4673 48.9318C75.331 48.9318 76.9332 49.6023 78.2741 50.9432C79.6151 52.2614 80.2855 53.8523 80.2855 55.7159C80.2855 56.9659 79.9673 58.1136 79.331 59.1591C78.7173 60.1818 77.8991 61 76.8764 61.6136C75.8537 62.2273 74.7173 62.5341 73.4673 62.5341ZM119.26 70.8523V75.9318C115.419 75.9318 112.737 76.7273 111.214 78.3182C109.692 79.9091 108.93 82.5227 108.93 86.1591V95.9773C108.93 99.4545 108.533 102.375 107.737 104.739C106.964 107.125 105.771 109.034 104.158 110.466C102.544 111.898 100.499 112.932 98.0213 113.568C95.544 114.205 92.6236 114.523 89.2599 114.523V106.443C91.8963 106.443 93.9531 106.045 95.4304 105.25C96.9077 104.477 97.9304 103.273 98.4986 101.636C99.0895 100.023 99.3849 97.9659 99.3849 95.4659V83.0568C99.3849 81.3068 99.6463 79.6932 100.169 78.2159C100.692 76.7159 101.658 75.4205 103.067 74.3295C104.476 73.2159 106.487 72.3636 109.101 71.7727C111.714 71.1591 115.101 70.8523 119.26 70.8523ZM89.2599 27.5568C92.6236 27.5568 95.544 27.875 98.0213 28.5114C100.499 29.1477 102.544 30.1818 104.158 31.6136C105.771 33.0455 106.964 34.9545 107.737 37.3409C108.533 39.7045 108.93 42.625 108.93 46.1023V55.8864C108.93 59.5455 109.692 62.1705 111.214 63.7614C112.737 65.3295 115.419 66.1136 119.26 66.1136V71.2273C115.101 71.2273 111.714 70.9205 109.101 70.3068C106.487 69.6932 104.476 68.8409 103.067 67.75C101.658 66.6591 100.692 65.375 100.169 63.8977C99.6463 62.3977 99.3849 60.7727 99.3849 59.0227V46.6136C99.3849 44.0909 99.0895 42.0227 98.4986 40.4091C97.9304 38.7727 96.9077 37.5682 95.4304 36.7955C93.9531 36.0227 91.8963 35.6364 89.2599 35.6364V27.5568ZM119.26 66.1136V75.9318H109.817V66.1136H119.26Z" fill="#155E63"/>
<path d="M25.7315 71.2273H23.7315V73.2273H25.7315V71.2273ZM25.7315 66.1136V64.1136H23.7315V66.1136H25.7315ZM33.777 63.7614L35.2118 65.1546L35.2169 65.1495L35.2218 65.1443L33.777 63.7614ZM37.2202 37.3409L35.3228 36.7084L35.3192 36.7194L37.2202 37.3409ZM40.8338 31.6136L39.5064 30.1177L39.5064 30.1177L40.8338 31.6136ZM46.9702 28.5114L47.4678 30.4485L47.4678 30.4485L46.9702 28.5114ZM55.7315 27.5568H57.7315V25.5568H55.7315V27.5568ZM55.7315 35.6364V37.6364H57.7315V35.6364H55.7315ZM49.5611 36.7955L48.6341 35.0233L48.6341 35.0233L49.5611 36.7955ZM46.4588 40.4091L44.5777 39.7298L44.575 39.7373L44.5723 39.7448L46.4588 40.4091ZM44.8224 63.8977L46.7079 64.5649L46.7111 64.5559L44.8224 63.8977ZM41.9247 67.75L43.1491 69.3314L43.1491 69.3314L41.9247 67.75ZM35.8906 70.3068L35.4335 68.3598L35.4335 68.3598L35.8906 70.3068ZM55.7315 114.523V116.523H57.7315V114.523H55.7315ZM46.9702 113.568L46.4726 115.505L46.4726 115.505L46.9702 113.568ZM40.8338 110.466L39.5064 111.962L39.5064 111.962L40.8338 110.466ZM37.2202 104.739L35.3191 105.36L35.3228 105.371L37.2202 104.739ZM33.777 78.3182L32.3322 79.7011L32.3322 79.7011L33.777 78.3182ZM25.7315 75.9318H23.7315V77.9318H25.7315V75.9318ZM25.7315 70.8523V68.8523H23.7315V70.8523H25.7315ZM35.8906 71.7727L35.4335 73.7198L35.4415 73.7217L35.4496 73.7235L35.8906 71.7727ZM41.9247 74.3295L40.6846 75.8987L40.6925 75.9049L40.7004 75.911L41.9247 74.3295ZM44.8224 78.2159L42.9338 78.8741L42.937 78.8831L44.8224 78.2159ZM46.4588 101.636L44.5723 102.301L44.575 102.308L44.5777 102.316L46.4588 101.636ZM49.5611 105.25L50.5093 103.489L50.4987 103.483L50.4881 103.478L49.5611 105.25ZM55.7315 106.443H57.7315V104.443H55.7315V106.443ZM25.7315 75.9318H23.7315V77.9318H25.7315V75.9318ZM25.7315 66.1136V64.1136H23.7315V66.1136H25.7315ZM35.1747 66.1136H37.1747V64.1136H35.1747V66.1136ZM35.1747 75.9318V77.9318H37.1747V75.9318H35.1747ZM27.7315 71.2273V66.1136H23.7315V71.2273H27.7315ZM25.7315 68.1136C29.7334 68.1136 33.1117 67.3175 35.2118 65.1546L32.3421 62.3681C31.3968 63.3416 29.4115 64.1136 25.7315 64.1136V68.1136ZM35.2218 65.1443C37.2737 63.0006 38.0611 59.74 38.0611 55.8864H34.0611C34.0611 59.3509 33.3258 61.3403 32.3322 62.3784L35.2218 65.1443ZM38.0611 55.8864V46.1023H34.0611V55.8864H38.0611ZM38.0611 46.1023C38.0611 42.7587 38.4344 40.0631 39.1212 37.9624L35.3192 36.7194C34.4605 39.346 34.0611 42.4913 34.0611 46.1023H38.0611ZM39.1175 37.9734C39.8206 35.8641 40.8508 34.2724 42.1612 33.1096L39.5064 30.1177C37.5896 31.8185 36.2106 34.045 35.3228 36.7085L39.1175 37.9734ZM42.1612 33.1096C43.4969 31.9244 45.2414 31.0204 47.4678 30.4485L46.4726 26.5743C43.7444 27.2751 41.398 28.4392 39.5064 30.1177L42.1612 33.1096ZM47.4678 30.4485C49.7407 29.8646 52.4864 29.5568 55.7315 29.5568V25.5568C52.2494 25.5568 49.1541 25.8854 46.4726 26.5743L47.4678 30.4485ZM53.7315 27.5568V35.6364H57.7315V27.5568H53.7315ZM55.7315 33.6364C52.9411 33.6364 50.5168 34.0385 48.6341 35.0233L50.4881 38.5677C51.5599 38.007 53.2492 37.6364 55.7315 37.6364V33.6364ZM48.6341 35.0233C46.6924 36.0389 45.3305 37.6451 44.5777 39.7298L48.3399 41.0884C48.7689 39.9003 49.4752 39.0974 50.4881 38.5676L48.6341 35.0233ZM44.5723 39.7448C43.9024 41.6475 43.6065 43.9618 43.6065 46.6136H47.6065C47.6065 44.22 47.8789 42.398 48.3453 41.0733L44.5723 39.7448ZM43.6065 46.6136V59.0227H47.6065V46.6136H43.6065ZM43.6065 59.0227C43.6065 60.5713 43.3757 61.9716 42.9338 63.2396L46.7111 64.5559C47.3146 62.8239 47.6065 60.9741 47.6065 59.0227H43.6065ZM42.937 63.2306C42.5593 64.2981 41.8487 65.2795 40.7004 66.1686L43.1491 69.3314C44.8189 68.0387 46.0402 66.4519 46.7079 64.5649L42.937 63.2306ZM40.7004 66.1686C39.603 67.0181 37.8966 67.7815 35.4335 68.3598L36.3478 72.2539C39.112 71.6049 41.4282 70.6637 43.1491 69.3314L40.7004 66.1686ZM35.4335 68.3598C33.0279 68.9246 29.8109 69.2273 25.7315 69.2273V73.2273C29.9704 73.2273 33.5261 72.9163 36.3478 72.2539L35.4335 68.3598ZM55.7315 112.523C52.4864 112.523 49.7407 112.215 47.4678 111.631L46.4726 115.505C49.1541 116.194 52.2494 116.523 55.7315 116.523V112.523ZM47.4678 111.631C45.2414 111.059 43.4969 110.155 42.1612 108.97L39.5064 111.962C41.398 113.64 43.7444 114.804 46.4726 115.505L47.4678 111.631ZM42.1612 108.97C40.8508 107.807 39.8206 106.215 39.1175 104.106L35.3228 105.371C36.2106 108.035 37.5896 110.261 39.5064 111.962L42.1612 108.97ZM39.1212 104.117C38.4344 102.016 38.0611 99.3208 38.0611 95.9773H34.0611C34.0611 99.5883 34.4605 102.734 35.3192 105.36L39.1212 104.117ZM38.0611 95.9773V86.1591H34.0611V95.9773H38.0611ZM38.0611 86.1591C38.0611 82.324 37.2719 79.0772 35.2218 76.9353L32.3322 79.7011C33.3275 80.741 34.0611 82.7215 34.0611 86.1591H38.0611ZM35.2218 76.9353C33.1223 74.7418 29.7394 73.9318 25.7315 73.9318V77.9318C29.4055 77.9318 31.3862 78.7128 32.3322 79.7011L35.2218 76.9353ZM27.7315 75.9318V70.8523H23.7315V75.9318H27.7315ZM25.7315 72.8523C29.8109 72.8523 33.0279 73.155 35.4335 73.7198L36.3478 69.8257C33.5261 69.1632 29.9704 68.8523 25.7315 68.8523V72.8523ZM35.4496 73.7235C37.9029 74.2782 39.5966 75.0388 40.6846 75.8987L43.1648 72.7604C41.4347 71.393 39.1056 70.4491 36.3317 69.822L35.4496 73.7235ZM40.7004 75.911C41.8419 76.7947 42.5536 77.7831 42.9338 78.8741L46.7111 77.5578C46.0458 75.6487 44.8257 74.0462 43.1491 72.7481L40.7004 75.911ZM42.937 78.8831C43.3756 80.1226 43.6065 81.5078 43.6065 83.0568H47.6065C47.6065 81.1059 47.3147 79.2638 46.7079 77.5488L42.937 78.8831ZM43.6065 83.0568V95.4659H47.6065V83.0568H43.6065ZM43.6065 95.4659C43.6065 98.0974 43.9029 100.4 44.5723 102.301L48.3453 100.972C47.8783 99.6459 47.6065 97.8344 47.6065 95.4659H43.6065ZM44.5777 102.316C45.3305 104.4 46.6924 106.007 48.6341 107.022L50.4881 103.478C49.4752 102.948 48.7689 102.145 48.3399 100.957L44.5777 102.316ZM48.6129 107.011C50.502 108.028 52.9351 108.443 55.7315 108.443V104.443C53.2553 104.443 51.5747 104.063 50.5093 103.489L48.6129 107.011ZM53.7315 106.443V114.523H57.7315V106.443H53.7315ZM27.7315 75.9318V66.1136H23.7315V75.9318H27.7315ZM25.7315 68.1136H35.1747V64.1136H25.7315V68.1136ZM33.1747 66.1136V75.9318H37.1747V66.1136H33.1747ZM35.1747 73.9318H25.7315V77.9318H35.1747V73.9318ZM78.7855 90.4545L80.7668 90.7272L81.0796 88.4545H78.7855V90.4545ZM78.2741 94.1705L76.2928 93.8978L76.2911 93.9101L76.2896 93.9224L78.2741 94.1705ZM76.5355 102.693L74.6081 102.159L74.6056 102.168L74.6033 102.177L76.5355 102.693ZM74.0469 110.977L72.1529 110.335L72.1503 110.342L72.1478 110.35L74.0469 110.977ZM71.9673 117.045V119.045H73.3682L73.8469 117.729L71.9673 117.045ZM64.7401 117.045L62.7826 116.635L62.2772 119.045H64.7401V117.045ZM65.9673 111.318L64.0136 110.89L64.0128 110.894L65.9673 111.318ZM68.6264 94.2727L66.6343 94.0949L66.6337 94.1026L66.633 94.1103L68.6264 94.2727ZM68.9673 90.4545V88.4545H67.1379L66.9753 90.2767L68.9673 90.4545ZM68.6605 60.5227L67.2463 61.9369L67.2463 61.9369L68.6605 60.5227ZM68.6605 50.9432L70.0626 52.3694L70.0687 52.3634L70.0747 52.3574L68.6605 50.9432ZM78.2741 50.9432L76.8599 52.3574L76.866 52.3634L76.8721 52.3694L78.2741 50.9432ZM79.331 59.1591L77.6225 58.1192L77.616 58.1301L79.331 59.1591ZM76.8042 90.1819L76.2928 93.8978L80.2555 94.4431L80.7668 90.7272L76.8042 90.1819ZM76.2896 93.9224C75.962 96.5429 75.4032 99.288 74.6081 102.159L78.463 103.227C79.3042 100.189 79.9044 97.2526 80.2587 94.4185L76.2896 93.9224ZM74.6033 102.177C73.8176 105.118 73.0005 107.836 72.1529 110.335L75.9408 111.62C76.8205 109.027 77.6625 106.223 78.4677 103.209L74.6033 102.177ZM72.1478 110.35C71.3096 112.887 70.6234 114.889 70.0877 116.362L73.8469 117.729C74.4021 116.202 75.1024 114.158 75.9459 111.605L72.1478 110.35ZM71.9673 115.045H64.7401V119.045H71.9673V115.045ZM66.6975 117.456C66.9916 116.053 67.3995 114.15 67.9218 111.742L64.0128 110.894C63.4897 113.305 63.0795 115.219 62.7826 116.635L66.6975 117.456ZM67.921 111.746C68.4519 109.322 68.9692 106.62 69.4734 103.641L65.5295 102.973C65.0337 105.903 64.5282 108.541 64.0137 110.89L67.921 111.746ZM69.4734 103.641C69.9832 100.628 70.3653 97.5592 70.6198 94.4352L66.633 94.1103C66.3876 97.1227 66.0196 100.077 65.5295 102.973L69.4734 103.641ZM70.6185 94.4506L70.9594 90.6324L66.9753 90.2767L66.6343 94.0949L70.6185 94.4506ZM68.9673 92.4545H78.7855V88.4545H68.9673V92.4545ZM73.4673 60.5341C72.1445 60.5341 71.0479 60.0817 70.0747 59.1085L67.2463 61.9369C68.9549 63.6455 71.0629 64.5341 73.4673 64.5341V60.5341ZM70.0747 59.1085C69.1015 58.1353 68.6491 57.0388 68.6491 55.7159H64.6491C64.6491 58.1203 65.5377 60.2283 67.2463 61.9369L70.0747 59.1085ZM68.6491 55.7159C68.6491 54.394 69.1003 53.3154 70.0626 52.3694L67.2584 49.5169C65.5389 51.2073 64.6491 53.3105 64.6491 55.7159H68.6491ZM70.0747 52.3574C71.0479 51.3842 72.1445 50.9318 73.4673 50.9318V46.9318C71.0629 46.9318 68.9549 47.8204 67.2463 49.529L70.0747 52.3574ZM73.4673 50.9318C74.7902 50.9318 75.8867 51.3842 76.8599 52.3574L79.6884 49.529C77.9798 47.8204 75.8718 46.9318 73.4673 46.9318V50.9318ZM76.8721 52.3694C77.8344 53.3154 78.2855 54.394 78.2855 55.7159H82.2855C82.2855 53.3105 81.3958 51.2073 79.6762 49.5169L76.8721 52.3694ZM78.2855 55.7159C78.2855 56.6073 78.064 57.394 77.6226 58.1192L81.0394 60.199C81.8707 58.8332 82.2855 57.3245 82.2855 55.7159H78.2855ZM77.616 58.1301C77.1712 58.8713 76.5887 59.4539 75.8474 59.8986L77.9054 63.3286C79.2096 62.5461 80.2634 61.4923 81.046 60.1881L77.616 58.1301ZM75.8474 59.8986C75.1508 60.3166 74.373 60.5341 73.4673 60.5341V64.5341C75.0616 64.5341 76.5566 64.1379 77.9054 63.3286L75.8474 59.8986ZM119.26 70.8523H121.26V68.8523H119.26V70.8523ZM119.26 75.9318V77.9318H121.26V75.9318H119.26ZM111.214 78.3182L112.659 79.7011L112.659 79.7011L111.214 78.3182ZM107.737 104.739L105.842 104.101L105.838 104.112L105.834 104.123L107.737 104.739ZM104.158 110.466L105.485 111.962L105.485 111.962L104.158 110.466ZM98.0213 113.568L98.5189 115.505L98.5189 115.505L98.0213 113.568ZM89.2599 114.523H87.2599V116.523H89.2599V114.523ZM89.2599 106.443V104.443H87.2599V106.443H89.2599ZM95.4304 105.25L94.5034 103.478L94.4928 103.483L94.4822 103.489L95.4304 105.25ZM98.4986 101.636L96.6205 100.949L96.6148 100.964L96.6092 100.98L98.4986 101.636ZM100.169 78.2159L102.055 78.8831L102.058 78.8741L100.169 78.2159ZM103.067 74.3295L104.291 75.911L104.299 75.9049L104.307 75.8987L103.067 74.3295ZM109.101 71.7727L109.542 73.7235L109.55 73.7217L109.558 73.7198L109.101 71.7727ZM89.2599 27.5568V25.5568H87.2599V27.5568H89.2599ZM104.158 31.6136L105.485 30.1177L105.485 30.1177L104.158 31.6136ZM107.737 37.3409L105.834 37.957L105.838 37.968L105.842 37.9788L107.737 37.3409ZM111.214 63.7614L109.77 65.1443L109.775 65.1495L109.78 65.1546L111.214 63.7614ZM119.26 66.1136H121.26V64.1136H119.26V66.1136ZM119.26 71.2273V73.2273H121.26V71.2273H119.26ZM109.101 70.3068L109.558 68.3598L109.558 68.3598L109.101 70.3068ZM103.067 67.75L101.842 69.3314L101.842 69.3314L103.067 67.75ZM100.169 63.8977L98.2804 64.5559L98.2836 64.5649L100.169 63.8977ZM98.4986 40.4091L96.6092 41.0651L96.6148 41.081L96.6205 41.0968L98.4986 40.4091ZM89.2599 35.6364H87.2599V37.6364H89.2599V35.6364ZM119.26 66.1136H121.26V64.1136H119.26V66.1136ZM119.26 75.9318V77.9318H121.26V75.9318H119.26ZM109.817 75.9318H107.817V77.9318H109.817V75.9318ZM109.817 66.1136V64.1136H107.817V66.1136H109.817ZM117.26 70.8523V75.9318H121.26V70.8523H117.26ZM119.26 73.9318C115.252 73.9318 111.869 74.7418 109.77 76.9353L112.659 79.7011C113.605 78.7128 115.586 77.9318 119.26 77.9318V73.9318ZM109.77 76.9353C107.72 79.0772 106.93 82.324 106.93 86.1591H110.93C110.93 82.7215 111.664 80.741 112.659 79.7011L109.77 76.9353ZM106.93 86.1591V95.9773H110.93V86.1591H106.93ZM106.93 95.9773C106.93 99.3165 106.547 102.006 105.842 104.101L109.633 105.377C110.519 102.744 110.93 99.5926 110.93 95.9773H106.93ZM105.834 104.123C105.154 106.225 104.136 107.811 102.83 108.97L105.485 111.962C107.406 110.257 108.775 108.025 109.64 105.355L105.834 104.123ZM102.83 108.97C101.495 110.155 99.7501 111.059 97.5237 111.631L98.5189 115.505C101.247 114.804 103.593 113.64 105.485 111.962L102.83 108.97ZM97.5237 111.631C95.2507 112.215 92.5051 112.523 89.2599 112.523V116.523C92.7421 116.523 95.8373 116.194 98.5189 115.505L97.5237 111.631ZM91.2599 114.523V106.443H87.2599V114.523H91.2599ZM89.2599 108.443C92.0564 108.443 94.4895 108.028 96.3786 107.011L94.4822 103.489C93.4167 104.063 91.7362 104.443 89.2599 104.443V108.443ZM96.3574 107.022C98.3049 106.003 99.6599 104.389 100.388 102.292L96.6092 100.98C96.2009 102.156 95.5104 102.951 94.5034 103.478L96.3574 107.022ZM100.377 102.324C101.076 100.414 101.385 98.1034 101.385 95.4659H97.3849C97.3849 97.8285 97.103 99.6311 96.6205 100.949L100.377 102.324ZM101.385 95.4659V83.0568H97.3849V95.4659H101.385ZM101.385 83.0568C101.385 81.5078 101.616 80.1226 102.054 78.8831L98.2836 77.5488C97.6767 79.2638 97.3849 81.1059 97.3849 83.0568H101.385ZM102.058 78.8741C102.438 77.7831 103.15 76.7947 104.291 75.911L101.842 72.7481C100.166 74.0462 98.9457 75.6487 98.2804 77.5578L102.058 78.8741ZM104.307 75.8987C105.395 75.0388 107.089 74.2782 109.542 73.7235L108.66 69.822C105.886 70.4491 103.557 71.393 101.827 72.7604L104.307 75.8987ZM109.558 73.7198C111.964 73.155 115.181 72.8523 119.26 72.8523V68.8523C115.021 68.8523 111.465 69.1632 108.644 69.8257L109.558 73.7198ZM89.2599 29.5568C92.5051 29.5568 95.2507 29.8646 97.5237 30.4485L98.5189 26.5743C95.8373 25.8854 92.7421 25.5568 89.2599 25.5568V29.5568ZM97.5237 30.4485C99.7501 31.0204 101.495 31.9244 102.83 33.1096L105.485 30.1177C103.593 28.4392 101.247 27.2751 98.5189 26.5743L97.5237 30.4485ZM102.83 33.1096C104.136 34.2685 105.154 35.8541 105.834 37.957L109.64 36.7248C108.775 34.055 107.406 31.8224 105.485 30.1177L102.83 33.1096ZM105.842 37.9788C106.547 40.0735 106.93 42.7631 106.93 46.1023H110.93C110.93 42.4869 110.519 39.3356 109.633 36.703L105.842 37.9788ZM106.93 46.1023V55.8864H110.93V46.1023H106.93ZM106.93 55.8864C106.93 59.74 107.718 63.0006 109.77 65.1443L112.659 62.3784C111.666 61.3403 110.93 59.3509 110.93 55.8864H106.93ZM109.78 65.1546C111.88 67.3175 115.258 68.1136 119.26 68.1136V64.1136C115.58 64.1136 113.595 63.3416 112.649 62.3681L109.78 65.1546ZM117.26 66.1136V71.2273H121.26V66.1136H117.26ZM119.26 69.2273C115.181 69.2273 111.964 68.9246 109.558 68.3598L108.644 72.2539C111.465 72.9163 115.021 73.2273 119.26 73.2273V69.2273ZM109.558 68.3598C107.095 67.7815 105.388 67.0181 104.291 66.1686L101.842 69.3314C103.563 70.6637 105.88 71.6049 108.644 72.2539L109.558 68.3598ZM104.291 66.1686C103.143 65.2795 102.432 64.2981 102.054 63.2306L98.2836 64.5649C98.9513 66.4519 100.173 68.0387 101.842 69.3314L104.291 66.1686ZM102.058 63.2396C101.616 61.9716 101.385 60.5713 101.385 59.0227H97.3849C97.3849 60.9741 97.6769 62.8239 98.2804 64.5559L102.058 63.2396ZM101.385 59.0227V46.6136H97.3849V59.0227H101.385ZM101.385 46.6136C101.385 43.9559 101.077 41.6327 100.377 39.7214L96.6205 41.0968C97.1024 42.4128 97.3849 44.2259 97.3849 46.6136H101.385ZM100.388 39.7531C99.6599 37.6565 98.3049 36.042 96.3574 35.0233L94.5034 38.5677C95.5104 39.0944 96.2009 39.889 96.6092 41.0651L100.388 39.7531ZM96.3574 35.0233C94.4747 34.0385 92.0503 33.6364 89.2599 33.6364V37.6364C91.7423 37.6364 93.4315 38.007 94.5034 38.5677L96.3574 35.0233ZM91.2599 35.6364V27.5568H87.2599V35.6364H91.2599ZM117.26 66.1136V75.9318H121.26V66.1136H117.26ZM119.26 73.9318H109.817V77.9318H119.26V73.9318ZM111.817 75.9318V66.1136H107.817V75.9318H111.817ZM109.817 68.1136H119.26V64.1136H109.817V68.1136Z" fill="white"/>
</g>
<defs>
<filter id="filter0_d_1_3" x="21.7315" y="27.5568" width="101.528" height="97.4886" filterUnits="userSpaceOnUse" color-interpolation-filters="sRGB">
<feFlood flood-opacity="0" result="BackgroundImageFix"/>
<feColorMatrix in="SourceAlpha" type="matrix" values="0 0 0 0 0 0 0 0 0 0 0 0 0 0 0 0 0 0 127 0" result="hardAlpha"/>
<feOffset dy="4"/>
<feGaussianBlur stdDeviation="2"/>
<feComposite in2="hardAlpha" operator="out"/>
<feColorMatrix type="matrix" values="0 0 0 0 0 0 0 0 0 0 0 0 0 0 0 0 0 0 0.25 0"/>
<feBlend mode="normal" in2="BackgroundImageFix" result="effect1_dropShadow_1_3"/>
<feBlend mode="normal" in="SourceGraphic" in2="effect1_dropShadow_1_3" result="shape"/>
</filter>
</defs>
</svg>
